<svg xmlns="http://www.w3.org/2000/svg" viewBox="0 0 700 450" role="img">
  <defs>
    <linearGradient id="ocean" x2="1" y2="1">
      <stop stop-color="#113d53"/>
      <stop offset="1" stop-color="#061824"/>
    </linearGradient>
    <linearGradient id="flow" x2="1">
      <stop stop-color="#39bed8"/>
      <stop offset="1" stop-color="#c4f3f6"/>
    </linearGradient>
  </defs>
  <rect width="700" height="450" rx="30" fill="url(#ocean)"/>
  <g fill="none" stroke="#214e61" stroke-width="1">
    <path d="M38 96h624M38 173h624M38 250h624M38 327h624"/>
    <path d="M142 40v370M278 40v370M414 40v370M550 40v370"/>
  </g>
  <path d="M68 146c64-49 93-44 149-7 53 34 84 47 126 19 63-43 119-48 167-16 46 30 79 39 136-3v177c-55 35-94 31-143-5-54-40-108-39-164 1-45 32-89 24-140-18-54-44-89-47-131-11Z" fill="#f0f8f7" opacity=".93"/>
  <path d="M82 249c55-27 83-21 123 17 48 46 90 47 135-1 55-58 113-58 167-4 49 48 88 49 130 16" fill="none" stroke="url(#flow)" stroke-width="10" stroke-linecap="round"/>
  <path d="M255 269c-5-28-25-52-55-66M346 255c-6-32 4-55 31-75M469 248c10-31 34-50 71-59" fill="none" stroke="#38b9d2" stroke-width="5" stroke-linecap="round"/>
  <g fill="#0f536c" opacity=".55">
    <ellipse cx="186" cy="191" rx="30" ry="16"/>
    <ellipse cx="289" cy="209" rx="45" ry="22"/>
    <ellipse cx="523" cy="204" rx="36" ry="18"/>
  </g>
  <g font-family="Arial,sans-serif" fill="#8eb4bf" font-size="11" letter-spacing="2">
    <text x="45" y="63">MELTWATER PATHWAYS</text>
    <text x="500" y="395">RIVER · LAKE · SEA ICE</text>
  </g>
</svg>
