<svg xmlns="http://www.w3.org/2000/svg" viewBox="0 0 640 700" role="img">
  <defs>
    <linearGradient id="bg" x2="0" y2="1">
      <stop stop-color="#eef8f7"/>
      <stop offset="1" stop-color="#c9e5e8"/>
    </linearGradient>
    <linearGradient id="ice" x1="0" y1="0" x2="1" y2="1">
      <stop stop-color="#ffffff"/>
      <stop offset=".53" stop-color="#d8edf1"/>
      <stop offset="1" stop-color="#b5d9df"/>
    </linearGradient>
    <linearGradient id="water" x2=".75" y2="1">
      <stop stop-color="#3fc4df"/>
      <stop offset="1" stop-color="#12627e"/>
    </linearGradient>
    <radialGradient id="glow">
      <stop stop-color="#22a2c5" stop-opacity=".22"/>
      <stop offset="1" stop-color="#22a2c5" stop-opacity="0"/>
    </radialGradient>
    <filter id="shadow" x="-20%" y="-20%" width="140%" height="140%">
      <feDropShadow dx="0" dy="18" stdDeviation="25" flood-color="#194c5d" flood-opacity=".14"/>
    </filter>
  </defs>
  <rect x="10" y="10" width="620" height="680" rx="42" fill="url(#bg)"/>
  <circle cx="456" cy="159" r="146" fill="url(#glow)"/>
  <g opacity=".5" fill="none" stroke="#87bac4">
    <path d="M84 163h81M514 110h44M492 128h83M61 524h98"/>
    <path d="M80 140v46M99 140v46M118 140v46" stroke-opacity=".32"/>
  </g>
  <g filter="url(#shadow)">
    <path d="M137 158 397 83c31-9 66 5 79 35l86 200c9 22-2 48-25 57l-279 112c-30 12-64-3-74-33L103 230c-10-31 5-62 34-72Z" fill="url(#ice)"/>
    <path d="M123 366c39-12 76-8 120 5 45 13 99 18 163-5 52-18 89-23 128-10l-7 20-269 108c-31 12-65-3-75-33Z" fill="#cae6eb" opacity=".7"/>
    <path d="M174 175c88 32 129 73 129 119 0 24-14 45-29 67-10 14-18 29-12 45 12 30 53 24 68 7 27-29 14-73 52-99 38-27 68-12 107-34" fill="none" stroke="url(#water)" stroke-width="12" stroke-linecap="round"/>
    <path d="M257 206c10 46 31 61 59 78M333 344c-29-2-53-19-69-42M329 413c23-18 44-25 66-22" fill="none" stroke="#55cee2" stroke-width="6" stroke-linecap="round"/>
    <ellipse cx="246" cy="228" rx="38" ry="26" fill="#29a8c7" opacity=".83"/>
    <ellipse cx="418" cy="201" rx="48" ry="32" fill="#1683a4" opacity=".74"/>
  </g>
  <path d="M50 574c72-20 119-17 185 3 67 20 132 20 208-7 67-24 108-29 147-14v86H50Z" fill="#0c3850"/>
  <path d="M50 596c55-13 104-12 169 7 72 21 135 19 214-8 63-21 111-25 157-9" fill="none" stroke="#22a2c5" stroke-width="3"/>
  <g fill="#d6edf0">
    <path d="m91 609 29-11 32 8 9 20-70 3Z"/>
    <path d="m459 618 41-18 37 12 13 18-91 5Z"/>
  </g>
  <g transform="translate(84 90)" fill="#103b53">
    <circle cx="0" cy="0" r="4"/>
    <path d="M0 12v37M0 23h39" stroke="#103b53" stroke-width="2"/>
    <text x="48" y="28" font-family="Arial,sans-serif" font-size="11" letter-spacing="2">REMOTE SENSING</text>
  </g>
</svg>
